<?xml version="1.0" encoding="UTF-8" standalone="no"?>
<!-- Created with Inkscape (http://www.inkscape.org/) -->

<svg
   xmlns:dc="http://purl.org/dc/elements/1.1/"
   xmlns:cc="http://creativecommons.org/ns#"
   xmlns:rdf="http://www.w3.org/1999/02/22-rdf-syntax-ns#"
   xmlns:svg="http://www.w3.org/2000/svg"
   xmlns="http://www.w3.org/2000/svg"
   xmlns:sodipodi="http://sodipodi.sourceforge.net/DTD/sodipodi-0.dtd"
   xmlns:inkscape="http://www.inkscape.org/namespaces/inkscape"
   width="1920"
   height="180"
   id="svg2985"
   version="1.1"
   inkscape:version="0.48.2 r9819"
   sodipodi:docname="logo marta kaplan png.zip">
  <defs
     id="defs2987">
    <marker
       inkscape:stockid="Arrow2Lstart"
       orient="auto"
       refY="0"
       refX="0"
       id="Arrow2Lstart"
       style="overflow:visible">
      <path
         id="path3814"
         style="font-size:12px;fill-rule:evenodd;stroke-width:0.625;stroke-linejoin:round"
         d="M 8.7185878,4.0337352 -2.2072895,0.01601326 8.7185884,-4.0017078 c -1.7454984,2.3720609 -1.7354408,5.6174519 -6e-7,8.035443 z"
         transform="matrix(1.1,0,0,1.1,1.1,0)"
         inkscape:connector-curvature="0" />
    </marker>
    <marker
       inkscape:stockid="CurveIn"
       orient="auto"
       refY="0"
       refX="0"
       id="CurveIn"
       style="overflow:visible">
      <path
         id="path3981"
         d="m 4.625493,-5.0456926 c -2.76,0 -5.00000002,2.24 -5.00000002,5.00000002 0,2.75999998 2.24000002,4.99999998 5.00000002,4.99999998"
         style="fill:none;stroke:#000000;stroke-width:1pt;marker-start:none;marker-end:none"
         transform="scale(0.6,0.6)"
         inkscape:connector-curvature="0" />
    </marker>
  </defs>
  <sodipodi:namedview
     id="base"
     pagecolor="#ffffff"
     bordercolor="#666666"
     borderopacity="1.0"
     inkscape:pageopacity="0.0"
     inkscape:pageshadow="2"
     inkscape:zoom="0.5"
     inkscape:cx="974.3133"
     inkscape:cy="145.75721"
     inkscape:document-units="px"
     inkscape:current-layer="layer1"
     showgrid="false"
     inkscape:window-width="1920"
     inkscape:window-height="1001"
     inkscape:window-x="-9"
     inkscape:window-y="-9"
     inkscape:window-maximized="1"
     showguides="true"
     inkscape:guide-bbox="true"
     fit-margin-top="0"
     fit-margin-left="0"
     fit-margin-right="0"
     fit-margin-bottom="0">
    <sodipodi:guide
       orientation="0,1"
       position="454.9032,88.79865"
       id="guide5211" />
    <sodipodi:guide
       orientation="0,1"
       position="409.3832,0.56499"
       id="guide5213" />
    <sodipodi:guide
       orientation="0,1"
       position="1339.879,26.604893"
       id="guide5254" />
    <sodipodi:guide
       orientation="0,1"
       position="1423.4943,150.43697"
       id="guide5256" />
  </sodipodi:namedview>
  <metadata
     id="metadata2990">
    <rdf:RDF>
      <cc:Work
         rdf:about="">
        <dc:format>image/svg+xml</dc:format>
        <dc:type
           rdf:resource="http://purl.org/dc/dcmitype/StillImage" />
        <dc:title></dc:title>
      </cc:Work>
    </rdf:RDF>
  </metadata>
  <g
     id="layer1"
     inkscape:label="Layer 1"
     inkscape:groupmode="layer"
     transform="translate(-258.96529,-428.72589)">
    <path
       style="fill:none;stroke:#000000;stroke-width:3.9184072;stroke-linecap:butt;stroke-linejoin:miter;stroke-miterlimit:4;stroke-opacity:1;stroke-dasharray:none"
       d="m 814.42773,553.7037 115.58248,-0.344"
       id="path5161"
       inkscape:connector-curvature="0" />
    <path
       style="fill:none;stroke:#000000;stroke-width:3.9184072;stroke-linecap:square;stroke-linejoin:round;stroke-miterlimit:4;stroke-opacity:1;stroke-dasharray:none"
       d="m 940.8235,580.4081 0,-118.00256 26.58935,0.31924 c 42.11175,2.41159 41.66495,87.20563 -1.45946,90.97235"
       inkscape:connector-curvature="0"
       sodipodi:nodetypes="cccc"
       id="path5163" />
    <path
       style="font-size:medium;font-style:normal;font-variant:normal;font-weight:normal;font-stretch:normal;text-indent:0;text-align:start;text-decoration:none;line-height:normal;letter-spacing:normal;word-spacing:normal;text-transform:none;direction:ltr;block-progression:tb;writing-mode:lr-tb;text-anchor:start;baseline-shift:baseline;color:#000000;fill:#000000;fill-opacity:1;stroke:none;stroke-width:4;marker:none;visibility:visible;display:inline;overflow:visible;enable-background:accumulate;font-family:Sans;-inkscape-font-specification:Sans"
       d="m 988.91948,551.98373 -48.1594,0.47299 -1.71998,0.0429 0.0429,3.43995 1.71998,-0.0429 47.29941,-0.47299 19.90861,25.62767 0.8926,1.08138 4.291,0 -1.3996,-1.85537 -1.0319,-1.37598 -20.46777,-26.27266 c -0.32787,-0.40961 -0.85137,-0.65504 -1.37595,-0.64498 z"
       id="path5167"
       inkscape:connector-curvature="0"
       sodipodi:nodetypes="cccccccccccccc" />
    <path
       style="fill:none;stroke:#000000;stroke-width:3.9184072;stroke-linecap:square;stroke-linejoin:miter;stroke-miterlimit:4;stroke-opacity:1;stroke-dasharray:none"
       d="m 1015.7114,462.4883 82.2157,0"
       id="path5169"
       inkscape:connector-curvature="0" />
    <path
       style="fill:none;stroke:#000000;stroke-width:3.9184072;stroke-linecap:square;stroke-linejoin:miter;stroke-miterlimit:4;stroke-opacity:1;stroke-dasharray:none"
       d="m 1058.0355,462.97478 0,117.42702"
       id="path5173"
       inkscape:connector-curvature="0"
       sodipodi:nodetypes="cc" />
    <path
       style="font-size:medium;font-style:normal;font-variant:normal;font-weight:normal;font-stretch:normal;text-indent:0;text-align:start;text-decoration:none;line-height:normal;letter-spacing:normal;word-spacing:normal;text-transform:none;direction:ltr;block-progression:tb;writing-mode:lr-tb;text-anchor:start;baseline-shift:baseline;color:#000000;fill:#000000;fill-opacity:1;stroke:none;stroke-width:4;marker:none;visibility:visible;display:inline;overflow:visible;enable-background:accumulate;font-family:Sans;-inkscape-font-specification:Sans"
       d="m 1149.3934,460.82492 c -0.6298,0.0724 -1.2013,0.52258 -1.4191,1.11798 l -46.0952,118.67845 -0.6413,1.55176 3.6554,-9.9e-4 0.1677,-0.34611 44.5045,-114.55051 43.8163,114.89449 3.7246,-0.003 -0.4996,-1.20137 -45.4075,-119.02244 c -0.2623,-0.71655 -1.0474,-1.20262 -1.8058,-1.11799 z"
       id="path5175"
       inkscape:connector-curvature="0"
       sodipodi:nodetypes="ccccccccccccc" />
    <path
       inkscape:connector-curvature="0"
       id="path5177"
       d="m 1086.8583,553.7037 115.5824,-0.344"
       style="fill:none;stroke:#000000;stroke-width:3.9184072;stroke-linecap:square;stroke-linejoin:miter;stroke-miterlimit:4;stroke-opacity:1;stroke-dasharray:none" />
    <path
       style="fill:none;stroke:#000000;stroke-width:3.9184072;stroke-linecap:square;stroke-linejoin:miter;stroke-miterlimit:4;stroke-opacity:1;stroke-dasharray:none"
       d="m 1247.4876,462.46679 0.3744,117.907"
       id="path5179"
       inkscape:connector-curvature="0"
       sodipodi:nodetypes="cc" />
    <path
       style="font-size:medium;font-style:normal;font-variant:normal;font-weight:normal;font-stretch:normal;text-indent:0;text-align:start;text-decoration:none;line-height:normal;letter-spacing:normal;word-spacing:normal;text-transform:none;direction:ltr;block-progression:tb;writing-mode:lr-tb;text-anchor:start;baseline-shift:baseline;color:#000000;fill:#000000;fill-opacity:1;stroke:none;stroke-width:4;marker:none;visibility:visible;display:inline;overflow:visible;enable-background:accumulate;font-family:Sans;-inkscape-font-specification:Sans"
       d="m 1307.8464,499.9114 -49.5354,52.97531 2.4938,2.32197 49.5354,-52.97532 2.2255,-2.26656 z"
       id="path5181"
       inkscape:connector-curvature="0"
       sodipodi:nodetypes="cccccc" />
    <path
       style="font-size:medium;font-style:normal;font-variant:normal;font-weight:normal;font-stretch:normal;text-indent:0;text-align:start;text-decoration:none;line-height:normal;letter-spacing:normal;word-spacing:normal;text-transform:none;direction:ltr;block-progression:tb;writing-mode:lr-tb;text-anchor:start;baseline-shift:baseline;color:#000000;fill:#000000;fill-opacity:1;stroke:none;stroke-width:4;marker:none;visibility:visible;display:inline;overflow:visible;enable-background:accumulate;font-family:Sans;-inkscape-font-specification:Sans"
       d="m 1246.7871,551.98373 0,3.43994 1.7199,0 45.0204,0 c 0.4843,0.55498 5.359,6.16801 10.75,12.34084 2.826,3.23594 5.6834,6.45304 7.8258,8.90089 1.0713,1.22393 1.9408,2.23978 2.58,2.96696 0.3194,0.36359 0.5935,0.65616 0.774,0.85999 0.09,0.10196 0.1603,0.19729 0.2149,0.25799 0.027,0.0303 0.02,0.0618 0.044,0.086 0.021,0.0243 0,-0.0229 0.172,0.12894 l 1.032,1.16744 4.4934,0 -3.1604,-3.61842 c 0,0.004 -0.043,-0.0405 -0.044,-0.0429 l -0.043,-0.0429 c -0.044,-0.0483 -0.06,-0.13526 -0.1295,-0.21499 -0.1749,-0.19739 -0.456,-0.45514 -0.774,-0.81698 -0.6361,-0.72372 -1.5096,-1.74396 -2.5799,-2.96697 -2.1407,-2.44603 -5.0002,-5.7084 -7.8259,-8.94389 -5.6513,-6.47095 -11.2659,-12.89983 -11.2659,-12.89983 -0.318,-0.37176 -0.8006,-0.5971 -1.2899,-0.60205 l -45.7944,0 z"
       id="path5183"
       inkscape:connector-curvature="0"
       sodipodi:nodetypes="ccccsscccscccccccssscccc" />
    <path
       style="fill:none;stroke:#000000;stroke-width:3.9184072;stroke-linecap:square;stroke-linejoin:miter;stroke-miterlimit:4;stroke-opacity:1;stroke-dasharray:none"
       d="m 1309.1811,553.7037 c 43.4942,-0.11463 134.2618,-0.22934 115.5825,-0.344"
       id="path5187"
       inkscape:connector-curvature="0"
       sodipodi:nodetypes="cc" />
    <path
       style="fill:none;stroke:#000000;stroke-width:3.9184072;stroke-linecap:square;stroke-linejoin:round;stroke-miterlimit:4;stroke-opacity:1;stroke-dasharray:none"
       d="m 1438.7796,580.38512 0.1211,-117.89925 32.3785,-0.0607 c 20.2642,2.35298 28.0228,21.18837 26.6049,35.87887 -2.6141,25.12485 -22.5602,31.62129 -28.8335,30.9761 l -29.2396,-0.34401"
       id="path5189"
       inkscape:connector-curvature="0"
       sodipodi:nodetypes="cccccc" />
    <path
       style="fill:none;stroke:#000000;stroke-width:1.37598205px;stroke-linecap:butt;stroke-linejoin:miter;stroke-opacity:1"
       d="m 1470.7712,494.53647 0.344,0"
       id="path5191"
       inkscape:connector-curvature="0" />
    <path
       style="fill:none;stroke:#000000;stroke-width:3.9184072;stroke-linecap:square;stroke-linejoin:miter;stroke-miterlimit:4;stroke-opacity:1;stroke-dasharray:none"
       d="m 1525.8912,462.4159 0.2633,117.73009 53.3044,0.0767"
       id="path5197"
       inkscape:connector-curvature="0"
       sodipodi:nodetypes="ccc" />
    <path
       style="fill:none;stroke:#000000;stroke-width:3.9184072;stroke-linecap:square;stroke-linejoin:miter;stroke-miterlimit:4;stroke-opacity:1;stroke-dasharray:none"
       d="m 1514.4586,554.04768 175.2993,0.14268"
       id="path5199"
       inkscape:connector-curvature="0"
       sodipodi:nodetypes="cc" />
    <path
       sodipodi:nodetypes="ccccccccccccc"
       inkscape:connector-curvature="0"
       id="path5205"
       d="m 1371.6144,460.82492 c -0.6297,0.0724 -1.2012,0.52258 -1.4191,1.11798 l -46.0952,118.67845 -0.6412,1.55176 3.6554,-9.9e-4 0.1677,-0.34611 44.5045,-114.55051 43.8163,114.89449 3.7246,-0.003 -0.4996,-1.20137 -45.4073,-119.02244 c -0.2625,-0.71655 -1.0477,-1.20262 -1.8061,-1.11799 z"
       style="font-size:medium;font-style:normal;font-variant:normal;font-weight:normal;font-stretch:normal;text-indent:0;text-align:start;text-decoration:none;line-height:normal;letter-spacing:normal;word-spacing:normal;text-transform:none;direction:ltr;block-progression:tb;writing-mode:lr-tb;text-anchor:start;baseline-shift:baseline;color:#000000;fill:#000000;fill-opacity:1;stroke:none;stroke-width:4;marker:none;visibility:visible;display:inline;overflow:visible;enable-background:accumulate;font-family:Sans;-inkscape-font-specification:Sans" />
    <path
       style="font-size:medium;font-style:normal;font-variant:normal;font-weight:normal;font-stretch:normal;text-indent:0;text-align:start;text-decoration:none;line-height:normal;letter-spacing:normal;word-spacing:normal;text-transform:none;direction:ltr;block-progression:tb;writing-mode:lr-tb;text-anchor:start;baseline-shift:baseline;color:#000000;fill:#000000;fill-opacity:1;stroke:none;stroke-width:4;marker:none;visibility:visible;display:inline;overflow:visible;enable-background:accumulate;font-family:Sans;-inkscape-font-specification:Sans"
       d="m 1633.0511,460.82492 c -0.6298,0.0724 -1.2013,0.52258 -1.419,1.11798 l -46.0955,118.67845 -0.6411,1.55176 3.6553,-9.9e-4 0.1677,-0.34611 44.5045,-114.55051 43.8164,114.89449 3.7247,-0.003 -0.4997,-1.20137 -45.4074,-119.02244 c -0.2623,-0.71655 -1.0476,-1.20262 -1.8059,-1.11799 z"
       id="path5207"
       inkscape:connector-curvature="0"
       sodipodi:nodetypes="ccccccccccccc" />
    <a
       id="a5251"
       transform="matrix(0.97960182,0,0,0.95602936,5.2725863,24.556212)">
      <path
         inkscape:connector-curvature="0"
         id="path5209"
         d="m 1727.4825,581.16565 0.2483,-122.16681 80.6996,121.91852 -0.4966,-122.66344"
         style="fill:none;stroke:#000000;stroke-width:4.04901314;stroke-linecap:square;stroke-linejoin:round;stroke-miterlimit:4;stroke-opacity:1;stroke-dasharray:none" />
    </a>
    <path
       sodipodi:nodetypes="ccccccccccccc"
       inkscape:connector-curvature="0"
       id="path5215"
       d="m 872.34122,460.82492 c -0.62981,0.0724 -1.20121,0.52258 -1.41898,1.11798 l -46.09541,118.67845 -0.64117,1.55176 3.65535,-9.9e-4 0.16779,-0.34611 44.50441,-114.55051 43.81643,114.89449 3.72458,-0.003 -0.49962,-1.20137 -45.40741,-119.02244 c -0.26243,-0.71655 -1.04758,-1.20262 -1.80597,-1.11799 z"
       style="font-size:medium;font-style:normal;font-variant:normal;font-weight:normal;font-stretch:normal;text-indent:0;text-align:start;text-decoration:none;line-height:normal;letter-spacing:normal;word-spacing:normal;text-transform:none;direction:ltr;block-progression:tb;writing-mode:lr-tb;text-anchor:start;baseline-shift:baseline;color:#000000;fill:#000000;fill-opacity:1;stroke:none;stroke-width:4;marker:none;visibility:visible;display:inline;overflow:visible;enable-background:accumulate;font-family:Sans;-inkscape-font-specification:Sans" />
    <path
       style="font-size:medium;font-style:normal;font-variant:normal;font-weight:normal;font-stretch:normal;text-indent:0;text-align:start;text-decoration:none;line-height:normal;letter-spacing:normal;word-spacing:normal;text-transform:none;direction:ltr;block-progression:tb;writing-mode:lr-tb;text-anchor:start;baseline-shift:baseline;color:#000000;fill:#000000;fill-opacity:1;stroke:none;stroke-width:4;marker:none;visibility:visible;display:inline;overflow:visible;enable-background:accumulate;font-family:Sans;-inkscape-font-specification:Sans"
       d="m 739.35072,460.82492 c -0.45826,0.0607 -0.88764,0.31522 -1.16099,0.68799 l -86.68687,117.25946 -1.03198,1.37599 -1.47242,1.98436 4.26738,0.0796 0.98899,-1.41898 83.59091,-113.04552 0,85.82688 c 2.2e-4,0.71601 0.49691,1.40494 1.17619,1.63136 0.67926,0.22643 1.48999,-0.0268 1.91976,-0.59937 l 64.54216,-86.85887 0,112.65854 0,1.71996 3.43995,0 0,-1.71996 0,-117.86147 c -2.2e-4,-0.716 -0.49692,-1.40494 -1.17619,-1.63137 -0.67926,-0.22641 -1.48999,0.0268 -1.91977,0.59938 l -64.54215,86.85887 0,-85.82688 c 0.007,-0.97689 -0.96571,-1.84202 -1.93497,-1.71997 z"
       inkscape:connector-curvature="0"
       sodipodi:nodetypes="cccccccccscccccccscccc" />
    <path
       style="fill:none;stroke:#000000;stroke-width:3.43995523;stroke-linecap:butt;stroke-linejoin:miter;stroke-miterlimit:4;stroke-opacity:1;stroke-dasharray:none"
       d="m 260.20322,552.73091 382.8622,0"
       id="path5247"
       inkscape:connector-curvature="0" />
    <path
       inkscape:connector-curvature="0"
       id="path5249"
       d="m 1797.2331,552.73091 343.5166,0"
       style="fill:none;stroke:#000000;stroke-width:3.25840855;stroke-linecap:butt;stroke-linejoin:miter;stroke-miterlimit:4;stroke-opacity:1;stroke-dasharray:none" />
    <path
       inkscape:connector-curvature="0"
       id="path5258"
       d="m 1796.5744,552.73091 382.8621,0"
       style="fill:none;stroke:#000000;stroke-width:3.43995523;stroke-linecap:butt;stroke-linejoin:miter;stroke-miterlimit:4;stroke-opacity:1;stroke-dasharray:none" />
  </g>
</svg>
