<?xml version="1.0" encoding="UTF-8" standalone="no"?>
<!-- Created with Inkscape (http://www.inkscape.org/) -->

<svg
   xmlns:dc="http://purl.org/dc/elements/1.1/"
   xmlns:cc="http://creativecommons.org/ns#"
   xmlns:rdf="http://www.w3.org/1999/02/22-rdf-syntax-ns#"
   xmlns:svg="http://www.w3.org/2000/svg"
   xmlns="http://www.w3.org/2000/svg"
   xmlns:sodipodi="http://sodipodi.sourceforge.net/DTD/sodipodi-0.dtd"
   xmlns:inkscape="http://www.inkscape.org/namespaces/inkscape"
   width="1920"
   height="180"
   id="svg2985"
   version="1.1"
   inkscape:version="0.48.2 r9819"
   sodipodi:docname="logo marta kaplan.svg">
  <defs
     id="defs2987">
    <marker
       inkscape:stockid="Arrow2Lstart"
       orient="auto"
       refY="0"
       refX="0"
       id="Arrow2Lstart"
       style="overflow:visible">
      <path
         id="path3814"
         style="font-size:12px;fill-rule:evenodd;stroke-width:0.625;stroke-linejoin:round"
         d="M 8.7185878,4.0337352 -2.2072895,0.01601326 8.7185884,-4.0017078 c -1.7454984,2.3720609 -1.7354408,5.6174519 -6e-7,8.035443 z"
         transform="matrix(1.1,0,0,1.1,1.1,0)"
         inkscape:connector-curvature="0" />
    </marker>
    <marker
       inkscape:stockid="CurveIn"
       orient="auto"
       refY="0"
       refX="0"
       id="CurveIn"
       style="overflow:visible">
      <path
         id="path3981"
         d="m 4.625493,-5.0456926 c -2.76,0 -5.00000002,2.24 -5.00000002,5.00000002 0,2.75999998 2.24000002,4.99999998 5.00000002,4.99999998"
         style="fill:none;stroke:#000000;stroke-width:1pt;marker-start:none;marker-end:none"
         transform="scale(0.6,0.6)"
         inkscape:connector-curvature="0" />
    </marker>
  </defs>
  <sodipodi:namedview
     id="base"
     pagecolor="#ffffff"
     bordercolor="#666666"
     borderopacity="1.0"
     inkscape:pageopacity="0.0"
     inkscape:pageshadow="2"
     inkscape:zoom="0.35355339"
     inkscape:cx="1512.5828"
     inkscape:cy="462.1964"
     inkscape:document-units="px"
     inkscape:current-layer="layer1"
     showgrid="false"
     inkscape:window-width="1920"
     inkscape:window-height="1001"
     inkscape:window-x="-9"
     inkscape:window-y="-9"
     inkscape:window-maximized="1"
     showguides="true"
     inkscape:guide-bbox="true"
     fit-margin-top="0"
     fit-margin-left="0"
     fit-margin-right="0"
     fit-margin-bottom="0">
    <sodipodi:guide
       orientation="0,1"
       position="454.9032,88.79865"
       id="guide5211" />
    <sodipodi:guide
       orientation="0,1"
       position="409.3832,0.56499"
       id="guide5213" />
  </sodipodi:namedview>
  <metadata
     id="metadata2990">
    <rdf:RDF>
      <cc:Work
         rdf:about="">
        <dc:format>image/svg+xml</dc:format>
        <dc:type
           rdf:resource="http://purl.org/dc/dcmitype/StillImage" />
        <dc:title></dc:title>
      </cc:Work>
    </rdf:RDF>
  </metadata>
  <g
     id="layer1"
     inkscape:label="Layer 1"
     inkscape:groupmode="layer"
     transform="translate(-258.96529,-428.72589)">
    <path
       style="fill:none;stroke:#000000;stroke-width:3.511585;stroke-linecap:butt;stroke-linejoin:miter;stroke-miterlimit:4;stroke-opacity:1;stroke-dasharray:none"
       d="m 826.00412,553.10684 117.98925,-0.35116"
       id="path5161"
       inkscape:connector-curvature="0" />
    <path
       style="fill:none;stroke:#000000;stroke-width:3.511585;stroke-linecap:square;stroke-linejoin:round;stroke-miterlimit:4;stroke-opacity:1;stroke-dasharray:none"
       d="m 955.03182,580.3673 0,-120.45971 27.14302,0.32589 c 42.98866,2.46179 42.53256,89.0215 -1.48985,92.86666"
       inkscape:connector-curvature="0"
       sodipodi:nodetypes="cccc"
       id="path5163" />
    <path
       style="font-size:medium;font-style:normal;font-variant:normal;font-weight:normal;font-stretch:normal;text-indent:0;text-align:start;text-decoration:none;line-height:normal;letter-spacing:normal;word-spacing:normal;text-transform:none;direction:ltr;block-progression:tb;writing-mode:lr-tb;text-anchor:start;baseline-shift:baseline;color:#000000;fill:#000000;fill-opacity:1;stroke:none;stroke-width:2.5;marker:none;visibility:visible;display:inline;overflow:visible;enable-background:accumulate;font-family:Sans;-inkscape-font-specification:Sans"
       d="m 1004.1293,551.35105 -49.16222,0.48284 -1.7558,0.0438 0.0438,3.51158 1.75579,-0.0438 48.28433,-0.48284 20.3232,26.16131 0.9112,1.1039 4.3803,0 -1.4287,-1.89401 -1.0535,-1.40463 -20.8939,-26.81973 c -0.3347,-0.41815 -0.8691,-0.66869 -1.4046,-0.65842 z"
       id="path5167"
       inkscape:connector-curvature="0"
       sodipodi:nodetypes="cccccccccccccc" />
    <path
       style="fill:none;stroke:#000000;stroke-width:3.511585;stroke-linecap:square;stroke-linejoin:miter;stroke-miterlimit:4;stroke-opacity:1;stroke-dasharray:none"
       d="m 1031.4791,459.99207 83.9277,0"
       id="path5169"
       inkscape:connector-curvature="0" />
    <path
       style="fill:none;stroke:#000000;stroke-width:3.511585;stroke-linecap:square;stroke-linejoin:miter;stroke-miterlimit:4;stroke-opacity:1;stroke-dasharray:none"
       d="m 1074.6846,460.48867 0,119.8722"
       id="path5173"
       inkscape:connector-curvature="0"
       sodipodi:nodetypes="cc" />
    <path
       style="font-size:medium;font-style:normal;font-variant:normal;font-weight:normal;font-stretch:normal;text-indent:0;text-align:start;text-decoration:none;line-height:normal;letter-spacing:normal;word-spacing:normal;text-transform:none;direction:ltr;block-progression:tb;writing-mode:lr-tb;text-anchor:start;baseline-shift:baseline;color:#000000;fill:#000000;fill-opacity:1;stroke:none;stroke-width:2.5;marker:none;visibility:visible;display:inline;overflow:visible;enable-background:accumulate;font-family:Sans;-inkscape-font-specification:Sans"
       d="m 1167.9447,458.29405 c -0.6429,0.0739 -1.2263,0.53347 -1.4486,1.14126 l -47.0551,121.14968 -0.6546,1.58407 3.7315,-10e-4 0.1713,-0.35333 45.4311,-116.93578 44.7288,117.28693 3.8021,-0.003 -0.51,-1.22638 -46.353,-121.50084 c -0.2678,-0.73147 -1.0693,-1.22766 -1.8435,-1.14127 z"
       id="path5175"
       inkscape:connector-curvature="0"
       sodipodi:nodetypes="ccccccccccccc" />
    <path
       inkscape:connector-curvature="0"
       id="path5177"
       d="m 1104.1075,553.10684 117.9892,-0.35116"
       style="fill:none;stroke:#000000;stroke-width:3.511585;stroke-linecap:square;stroke-linejoin:miter;stroke-miterlimit:4;stroke-opacity:1;stroke-dasharray:none" />
    <path
       style="fill:none;stroke:#000000;stroke-width:3.511585;stroke-linecap:square;stroke-linejoin:miter;stroke-miterlimit:4;stroke-opacity:1;stroke-dasharray:none"
       d="m 1268.0816,459.97011 0.3822,120.36217"
       id="path5179"
       inkscape:connector-curvature="0"
       sodipodi:nodetypes="cc" />
    <path
       style="font-size:medium;font-style:normal;font-variant:normal;font-weight:normal;font-stretch:normal;text-indent:0;text-align:start;text-decoration:none;line-height:normal;letter-spacing:normal;word-spacing:normal;text-transform:none;direction:ltr;block-progression:tb;writing-mode:lr-tb;text-anchor:start;baseline-shift:baseline;color:#000000;fill:#000000;fill-opacity:1;stroke:none;stroke-width:2.5;marker:none;visibility:visible;display:inline;overflow:visible;enable-background:accumulate;font-family:Sans;-inkscape-font-specification:Sans"
       d="m 1329.6972,498.19443 -50.5669,54.07841 2.5458,2.37032 50.5668,-54.07842 2.2719,-2.31376 z"
       id="path5181"
       inkscape:connector-curvature="0"
       sodipodi:nodetypes="cccccc" />
    <path
       style="font-size:medium;font-style:normal;font-variant:normal;font-weight:normal;font-stretch:normal;text-indent:0;text-align:start;text-decoration:none;line-height:normal;letter-spacing:normal;word-spacing:normal;text-transform:none;direction:ltr;block-progression:tb;writing-mode:lr-tb;text-anchor:start;baseline-shift:baseline;color:#000000;fill:#000000;fill-opacity:1;stroke:none;stroke-width:2.5;marker:none;visibility:visible;display:inline;overflow:visible;enable-background:accumulate;font-family:Sans;-inkscape-font-specification:Sans"
       d="m 1267.3665,551.35105 0,3.51158 1.7557,0 45.9579,0 c 0.4943,0.56653 5.4705,6.29644 10.9737,12.59781 2.885,3.30332 5.8018,6.58741 7.9889,9.08623 1.0935,1.24941 1.9812,2.28641 2.6336,3.02874 0.3262,0.37116 0.6059,0.66982 0.7902,0.8779 0.092,0.10408 0.1637,0.2014 0.2194,0.26336 0.028,0.031 0.021,0.063 0.044,0.0878 0.022,0.0248 0,-0.0234 0.1755,0.13161 l 1.0536,1.19176 4.5869,0 -3.2263,-3.69377 c 0,0.004 -0.043,-0.0413 -0.044,-0.0438 l -0.044,-0.0438 c -0.044,-0.0493 -0.061,-0.13808 -0.1321,-0.21948 -0.1785,-0.20149 -0.4655,-0.46461 -0.7901,-0.83399 -0.6493,-0.73879 -1.541,-1.78027 -2.6337,-3.02875 -2.1853,-2.49696 -5.1043,-5.82726 -7.9888,-9.13012 -5.769,-6.6057 -11.5005,-13.16844 -11.5005,-13.16844 -0.3246,-0.37951 -0.8173,-0.60954 -1.3167,-0.6146 l -46.748,0 z"
       id="path5183"
       inkscape:connector-curvature="0"
       sodipodi:nodetypes="ccccsscccscccccccssscccc" />
    <path
       style="fill:none;stroke:#000000;stroke-width:3.511585;stroke-linecap:square;stroke-linejoin:miter;stroke-miterlimit:4;stroke-opacity:1;stroke-dasharray:none"
       d="m 1331.0597,553.10684 c 44.3999,-0.11701 137.0576,-0.23411 117.9893,-0.35116"
       id="path5187"
       inkscape:connector-curvature="0"
       sodipodi:nodetypes="cc" />
    <path
       style="fill:none;stroke:#000000;stroke-width:3.511585;stroke-linecap:square;stroke-linejoin:round;stroke-miterlimit:4;stroke-opacity:1;stroke-dasharray:none"
       d="m 1463.3568,580.34384 0.1236,-120.35425 33.0527,-0.062 c 20.6862,2.40197 28.6064,21.62957 27.1589,36.62597 -2.6684,25.64802 -23.0299,32.27974 -29.4338,31.62111 l -29.8485,-0.35117"
       id="path5189"
       inkscape:connector-curvature="0"
       sodipodi:nodetypes="cccccc" />
    <path
       style="fill:none;stroke:#000000;stroke-width:1.404634px;stroke-linecap:butt;stroke-linejoin:miter;stroke-opacity:1"
       d="m 1496.0145,492.70758 0.3512,0"
       id="path5191"
       inkscape:connector-curvature="0" />
    <path
       style="fill:none;stroke:#000000;stroke-width:3.511585;stroke-linecap:square;stroke-linejoin:miter;stroke-miterlimit:4;stroke-opacity:1;stroke-dasharray:none"
       d="m 1553.0778,459.91816 -0.5267,120.41594 57.4144,0.0314"
       id="path5197"
       inkscape:connector-curvature="0"
       sodipodi:nodetypes="ccc" />
    <path
       style="fill:none;stroke:#000000;stroke-width:3.511585;stroke-linecap:square;stroke-linejoin:miter;stroke-miterlimit:4;stroke-opacity:1;stroke-dasharray:none"
       d="m 1540.6117,553.45799 181.1597,0.14564"
       id="path5199"
       inkscape:connector-curvature="0" />
    <path
       sodipodi:nodetypes="ccccccccccccc"
       inkscape:connector-curvature="0"
       id="path5205"
       d="m 1394.7931,458.29405 c -0.6429,0.0739 -1.2262,0.53347 -1.4487,1.14126 l -47.0551,121.14968 -0.6545,1.58407 3.7315,-10e-4 0.1712,-0.35333 45.4312,-116.93578 44.7287,117.28693 3.8022,-0.003 -0.51,-1.22638 -46.3529,-121.50084 c -0.2679,-0.73147 -1.0694,-1.22766 -1.8436,-1.14127 z"
       style="font-size:medium;font-style:normal;font-variant:normal;font-weight:normal;font-stretch:normal;text-indent:0;text-align:start;text-decoration:none;line-height:normal;letter-spacing:normal;word-spacing:normal;text-transform:none;direction:ltr;block-progression:tb;writing-mode:lr-tb;text-anchor:start;baseline-shift:baseline;color:#000000;fill:#000000;fill-opacity:1;stroke:none;stroke-width:2.5;marker:none;visibility:visible;display:inline;overflow:visible;enable-background:accumulate;font-family:Sans;-inkscape-font-specification:Sans" />
    <path
       style="font-size:medium;font-style:normal;font-variant:normal;font-weight:normal;font-stretch:normal;text-indent:0;text-align:start;text-decoration:none;line-height:normal;letter-spacing:normal;word-spacing:normal;text-transform:none;direction:ltr;block-progression:tb;writing-mode:lr-tb;text-anchor:start;baseline-shift:baseline;color:#000000;fill:#000000;fill-opacity:1;stroke:none;stroke-width:2.5;marker:none;visibility:visible;display:inline;overflow:visible;enable-background:accumulate;font-family:Sans;-inkscape-font-specification:Sans"
       d="m 1661.6736,458.29405 c -0.6429,0.0739 -1.2263,0.53347 -1.4486,1.14126 l -47.0553,121.14968 -0.6544,1.58407 3.7314,-10e-4 0.1712,-0.35333 45.4312,-116.93578 44.7288,117.28693 3.8022,-0.003 -0.51,-1.22638 -46.353,-121.50084 c -0.2678,-0.73147 -1.0694,-1.22766 -1.8435,-1.14127 z"
       id="path5207"
       inkscape:connector-curvature="0"
       sodipodi:nodetypes="ccccccccccccc" />
    <path
       style="fill:none;stroke:#000000;stroke-width:3.511585;stroke-linecap:square;stroke-linejoin:round;stroke-miterlimit:4;stroke-opacity:1;stroke-dasharray:none"
       d="m 1727.4825,581.16565 0.2483,-122.16681 80.6996,121.91852 -0.4966,-122.66344"
       id="path5209"
       inkscape:connector-curvature="0" />
    <path
       sodipodi:nodetypes="ccccccccccccc"
       inkscape:connector-curvature="0"
       id="path5215"
       d="m 885.12354,458.29405 c -0.64293,0.0739 -1.22622,0.53347 -1.44853,1.14126 l -47.05525,121.14968 -0.65452,1.58407 3.73147,-10e-4 0.17127,-0.35333 45.43113,-116.93578 44.72882,117.28693 3.80214,-0.003 -0.51003,-1.22638 -46.35293,-121.50084 c -0.26789,-0.73147 -1.06939,-1.22766 -1.84357,-1.14127 z"
       style="font-size:medium;font-style:normal;font-variant:normal;font-weight:normal;font-stretch:normal;text-indent:0;text-align:start;text-decoration:none;line-height:normal;letter-spacing:normal;word-spacing:normal;text-transform:none;direction:ltr;block-progression:tb;writing-mode:lr-tb;text-anchor:start;baseline-shift:baseline;color:#000000;fill:#000000;fill-opacity:1;stroke:none;stroke-width:2.5;marker:none;visibility:visible;display:inline;overflow:visible;enable-background:accumulate;font-family:Sans;-inkscape-font-specification:Sans" />
    <path
       style="font-size:medium;font-style:normal;font-variant:normal;font-weight:normal;font-stretch:normal;text-indent:0;text-align:start;text-decoration:none;line-height:normal;letter-spacing:normal;word-spacing:normal;text-transform:none;direction:ltr;block-progression:tb;writing-mode:lr-tb;text-anchor:start;baseline-shift:baseline;color:#000000;fill:#000000;fill-opacity:1;stroke:none;stroke-width:2.5;marker:none;visibility:visible;display:inline;overflow:visible;enable-background:accumulate;font-family:Sans;-inkscape-font-specification:Sans"
       d="m 749.36378,458.29405 c -0.46779,0.062 -0.90611,0.32178 -1.18516,0.70231 l -88.49194,119.70115 -1.05347,1.40464 -1.50308,2.02569 4.35624,0.0813 1.00958,-1.44853 85.33151,-115.39946 0,87.61405 c 2.3e-4,0.73091 0.50727,1.43419 1.20069,1.66533 0.6934,0.23114 1.52101,-0.0273 1.95974,-0.61186 l 65.88611,-88.66752 0,115.00441 0,1.75579 3.51158,0 0,-1.75579 0,-120.31568 c -2.2e-4,-0.73091 -0.50726,-1.43419 -1.20068,-1.66534 -0.69341,-0.23113 -1.52102,0.0273 -1.95974,0.61186 l -65.88611,88.66752 0,-87.61404 c 0.007,-0.99724 -0.98582,-1.88038 -1.97527,-1.75579 z"
       inkscape:connector-curvature="0"
       sodipodi:nodetypes="cccccccccscccccccscccc" />
    <path
       style="fill:none;stroke:#000000;stroke-width:3.511585;stroke-linecap:butt;stroke-linejoin:miter;stroke-miterlimit:4;stroke-opacity:1;stroke-dasharray:none"
       d="m 260.23903,552.11379 390.83451,0"
       id="path5247"
       inkscape:connector-curvature="0" />
    <path
       inkscape:connector-curvature="0"
       id="path5249"
       d="m 1829.2744,552.11379 350.6696,0"
       style="fill:none;stroke:#000000;stroke-width:3.32625818;stroke-linecap:butt;stroke-linejoin:miter;stroke-miterlimit:4;stroke-opacity:1;stroke-dasharray:none" />
  </g>
</svg>
